<svg xmlns="http://www.w3.org/2000/svg" xmlns:svg="http://www.w3.org/2000/svg" id="svg8" width="512" height="700" version="1.1" viewBox="0 0 135.467 185.208"><metadata id="metadata5"/><g id="layer1" transform="translate(0,-111.79165)"><g id="g4746" transform="matrix(0.73504202,0,0,0.73940641,648.07767,-86.725921)"><path style="fill:#000;fill-opacity:1;stroke:none;stroke-width:8.56716442;stroke-miterlimit:4;stroke-dasharray:none;stroke-opacity:1" id="path4715" d="m -875.03414,294.85533 68.24244,-19.77795 h 17.18018 14.37799 l 71.04463,19.77795 0.15977,217.51444 h -170.15164 z"/><g style="fill:#fff;fill-opacity:1;stroke:#fff;stroke-opacity:1" id="g4721" transform="matrix(0.9308803,0,0,0.9308803,-887.18185,259.60119)"><path id="path4717" d="m 104.04564,45.09026 6.48128,-2e-6 L 131.6946,169.71302 104.04564,197.16637 76.784151,170.27051 96.896184,45.09026 Z" style="fill:#fff;fill-opacity:1;stroke:#fff;stroke-width:5.93493128;stroke-miterlimit:4;stroke-dasharray:none;stroke-opacity:1"/><path id="path4719" d="m 92.101403,17.706465 h 23.227717 l 4.00478,6.54114 -5.62513,11.346871 H 94.184706 L 88.096625,24.247605 Z" style="fill:#fff;fill-opacity:1;stroke:#fff;stroke-width:4.58303165;stroke-miterlimit:4;stroke-dasharray:none;stroke-opacity:1"/></g><text id="text4725" x="-831.188" y="488.324" xml:space="preserve" style="font-style:normal;font-weight:400;font-size:49.67524719px;line-height:1.25;font-family:sans-serif;letter-spacing:0;word-spacing:0;fill:#000;fill-opacity:1;stroke:none;stroke-width:1.24188113"><tspan style="font-style:normal;font-variant:normal;font-weight:700;font-stretch:normal;font-family:sans-serif;-inkscape-font-specification:'sans-serif Bold';fill:#fff;stroke-width:1.24188113" id="tspan4723" x="-831.188" y="488.324">\cv</tspan></text><path style="fill:none;stroke:#ff8900;stroke-width:5.29166651;stroke-linecap:butt;stroke-linejoin:miter;stroke-miterlimit:4;stroke-dasharray:none;stroke-opacity:1" id="path4727" d="m -816.52344,372.93522 h 30.99404"/><path id="path4729" d="m -875.03414,294.85533 68.24244,-19.77795 h 17.18018 14.37799 l 71.04463,19.77795 0.15977,217.51444 h -170.15164 z" style="fill:none;fill-opacity:1;stroke:#ff8900;stroke-width:13.22916698;stroke-miterlimit:4;stroke-dasharray:none;stroke-opacity:1"/><path style="fill:none;stroke:#ff8900;stroke-width:.26458332px;stroke-linecap:butt;stroke-linejoin:miter;stroke-opacity:0" id="path4735" d="m -872.36773,453.61994 h 164.63804"/></g></g></svg>